<?xml version="1.0" encoding="UTF-8"?>
<!DOCTYPE svg PUBLIC "-//W3C//DTD SVG 1.1//EN" "http://www.w3.org/Graphics/SVG/1.1/DTD/svg11.dtd">
<!-- Creator: CorelDRAW -->
<svg xmlns="http://www.w3.org/2000/svg" xml:space="preserve" width="512px" height="512px" version="1.1" style="shape-rendering:geometricPrecision; text-rendering:geometricPrecision; image-rendering:optimizeQuality; fill-rule:evenodd; clip-rule:evenodd"
viewBox="0 0 512 512"
 xmlns:xlink="http://www.w3.org/1999/xlink">
 <defs>
  <style type="text/css">
   <![CDATA[
    .fil1 {fill:#00CCFF}
    .fil0 {fill:#1B74B9}
    .fil2 {fill:white}
   ]]>
  </style>
 </defs>
 <g id="Layer_x0020_1">
  <metadata id="CorelCorpID_0Corel-Layer"/>
  <path class="fil0" d="M505 439l-498 0c-4,0 -7,-4 -7,-8l0 -350c0,-4 3,-8 7,-8l498 0c4,0 7,4 7,8l0 350c0,4 -4,8 -7,8zm-149 -47l-211 0c-10,0 -10,-15 0,-15l211 0c10,0 10,15 0,15zm93 -257l-164 0c-10,0 -10,-15 0,-15l164 0c10,0 10,15 0,15zm0 166l-164 0c-10,0 -10,-15 0,-15l164 0c10,0 10,15 0,15zm0 -55l-164 0c-10,0 -10,-15 0,-15l164 0c10,0 10,15 0,15zm0 -55l-164 0c-10,0 -10,-15 0,-15l164 0c10,0 10,15 0,15zm-11 160l-376 0c-9,0 -9,-15 0,-15l376 0c10,0 10,15 0,15zm-293 -132c-20,0 -36,-17 -36,-37 0,-19 16,-35 36,-35 20,0 36,16 36,35 0,20 -16,37 -36,37zm0 -58c-11,0 -21,10 -21,21 0,12 9,22 21,22 12,0 22,-10 22,-22 -1,-11 -10,-21 -22,-21zm-64 90c35,-36 92,-36 128,0 31,-49 -4,-115 -64,-115 -59,0 -95,65 -64,115zm119 12c-30,-32 -81,-33 -110,-1 29,32 80,33 110,1zm-55 38c-49,0 -90,-40 -90,-90 0,-49 40,-90 90,-90 50,0 90,41 90,90 0,50 -40,90 -90,90zm-130 123l482 0 0 -336 -482 0 0 336z"/>
  <path class="fil1" d="M285 301c-10,0 -10,-15 0,-15l164 0c10,0 10,15 0,15l-164 0zm-223 35l376 0c10,0 10,15 0,15l-376 0c-9,0 -9,-15 0,-15zm83 41l211 0c10,0 10,15 0,15l-211 0c-10,0 -10,-15 0,-15zm-130 47l482 0 0 -336 -482 0 0 336zm434 -289l-164 0c-10,0 -10,-15 0,-15l164 0c10,0 10,15 0,15zm-164 56c-10,0 -10,-15 0,-15l164 0c10,0 10,15 0,15l-164 0zm0 40l164 0c10,0 10,15 0,15l-164 0c-10,0 -10,-15 0,-15zm-140 -110c50,0 90,41 90,90 0,50 -40,90 -90,90 -49,0 -90,-40 -90,-90 0,-49 40,-90 90,-90z"/>
  <path class="fil2" d="M209 251c31,-49 -4,-115 -64,-115 -59,0 -95,65 -64,115 35,-36 92,-36 128,0zm-28 -69c0,20 -16,37 -36,37 -20,0 -36,-17 -36,-37 0,-19 16,-35 36,-35 20,0 36,16 36,35z"/>
  <path class="fil2" d="M200 263c-30,-32 -81,-33 -110,-1 29,32 80,33 110,1z"/>
  <path class="fil1" d="M145 204c12,0 22,-10 22,-22 -1,-11 -10,-21 -22,-21 -11,0 -21,10 -21,21 0,12 9,22 21,22z"/>
 </g>
</svg>
