<?xml version="1.0" encoding="UTF-8" standalone="no"?> <svg xmlns="http://www.w3.org/2000/svg" xmlns:xlink="http://www.w3.org/1999/xlink" viewBox="0 0 64 64"><defs><style>.cls-1{fill:url(#linear-gradient);}</style><linearGradient id="linear-gradient" x1="2" y1="32.02" x2="62.02" y2="32.02" gradientUnits="userSpaceOnUse"><stop offset="0" stop-color="#17a6d7"/><stop offset="1" stop-color="#9d31fe"/></linearGradient></defs><g id="Layer_13" data-name="Layer 13"><path class="cls-1" d="M59.93,24.16a1.9,1.9,0,0,0-.23-.39,16,16,0,0,0-27.4,0,1.9,1.9,0,0,0-.23.39A15.73,15.73,0,0,0,30.14,30H4a2,2,0,0,0-2,2V44.1a2,2,0,0,0,2,2h6.35a2,2,0,0,0,2-2V34h2.93v5.37a2,2,0,1,0,4,0V34H30.13A16.08,16.08,0,0,0,46,48C58.1,48.1,66,34.59,59.93,24.16ZM53.71,32a15.73,15.73,0,0,0,3.89-3,11.81,11.81,0,0,1,0,6A16,16,0,0,0,53.71,32ZM46,20a12,12,0,0,1,9.72,5,12,12,0,0,1-19.44,0A12,12,0,0,1,46,20ZM34.39,35a11.81,11.81,0,0,1,0-6,15.73,15.73,0,0,0,3.89,3A16,16,0,0,0,34.39,35Zm-26,7.09H6V34H8.35ZM46,44a12,12,0,0,1-9.72-5,12,12,0,0,1,19.44,0A12,12,0,0,1,46,44Z"/></g></svg>